<?xml version="1.0" encoding="utf-8"?>
<!-- Generator: Adobe Illustrator 22.0.1, SVG Export Plug-In . SVG Version: 6.00 Build 0)  -->
<svg version="1.1" id="Layer_1" xmlns="http://www.w3.org/2000/svg" xmlns:xlink="http://www.w3.org/1999/xlink" x="0px" y="0px"
	 viewBox="0 0 11.6 14.4" style="enable-background:new 0 0 11.6 14.4;" xml:space="preserve">
<style type="text/css">
	.st0{fill:#565D66;}
	.st1{fill:#EAEAEA;}
	.st2{fill-rule:evenodd;clip-rule:evenodd;fill:#565D66;}
	.st3{fill:#103856;}
	.st4{fill-rule:evenodd;clip-rule:evenodd;fill:#103856;}
	.st5{fill-rule:evenodd;clip-rule:evenodd;fill:#991032;}
	.st6{fill-rule:evenodd;clip-rule:evenodd;fill:#F48900;}
	.st7{opacity:0.5;fill-rule:evenodd;clip-rule:evenodd;fill:#6A6A69;}
	.st8{fill:#158181;}
	.st9{fill:#EDEDED;}
	.st10{fill:#157070;}
</style>
<path id="XMLID_14_" class="st0" d="M-47.7,32.3c-0.4,0-0.8,0-1.2,0c0-4.8,0-9.6,0-14.4c0.4,0,0.8,0,1.2,0
	C-47.7,22.7-47.7,27.5-47.7,32.3z"/>
<rect id="XMLID_13_" x="-47.3" y="17.9" class="st1" width="10.5" height="14.4"/>
<rect id="XMLID_12_" x="-45.9" y="20.8" class="st2" width="2.5" height="2.1"/>
<rect id="XMLID_11_" x="-45.9" y="24.2" class="st2" width="2.5" height="2.1"/>
<rect id="XMLID_10_" x="-45.9" y="27.5" class="st2" width="2.5" height="2.1"/>
<path id="XMLID_9_" class="st2" d="M-40.2,21.1h-2.2c-0.1,0-0.2-0.1-0.2-0.2v0c0-0.1,0.1-0.2,0.2-0.2h2.2c0.1,0,0.2,0.1,0.2,0.2v0
	C-40.1,21.1-40.1,21.1-40.2,21.1z"/>
<path id="XMLID_8_" class="st2" d="M-38.3,22h-4.1c-0.1,0-0.2-0.1-0.2-0.2l0,0c0-0.1,0.1-0.2,0.2-0.2h4.1c0.1,0,0.2,0.1,0.2,0.2l0,0
	C-38.1,21.9-38.2,22-38.3,22z"/>
<path id="XMLID_7_" class="st2" d="M-38.3,22.9h-4.1c-0.1,0-0.2-0.1-0.2-0.2l0,0c0-0.1,0.1-0.2,0.2-0.2h4.1c0.1,0,0.2,0.1,0.2,0.2
	l0,0C-38.1,22.8-38.2,22.9-38.3,22.9z"/>
<path id="XMLID_6_" class="st2" d="M-40.2,24.6h-2.2c-0.1,0-0.2-0.1-0.2-0.2v0c0-0.1,0.1-0.2,0.2-0.2h2.2c0.1,0,0.2,0.1,0.2,0.2v0
	C-40.1,24.5-40.1,24.6-40.2,24.6z"/>
<path id="XMLID_5_" class="st2" d="M-38.3,25.4h-4.1c-0.1,0-0.2-0.1-0.2-0.2l0,0c0-0.1,0.1-0.2,0.2-0.2h4.1c0.1,0,0.2,0.1,0.2,0.2
	l0,0C-38.1,25.4-38.2,25.4-38.3,25.4z"/>
<path id="XMLID_4_" class="st2" d="M-38.3,26.3h-4.1c-0.1,0-0.2-0.1-0.2-0.2l0,0c0-0.1,0.1-0.2,0.2-0.2h4.1c0.1,0,0.2,0.1,0.2,0.2
	l0,0C-38.1,26.2-38.2,26.3-38.3,26.3z"/>
<path id="XMLID_3_" class="st2" d="M-40.2,27.9h-2.2c-0.1,0-0.2-0.1-0.2-0.2l0,0c0-0.1,0.1-0.2,0.2-0.2h2.2c0.1,0,0.2,0.1,0.2,0.2
	l0,0C-40.1,27.8-40.1,27.9-40.2,27.9z"/>
<path id="XMLID_2_" class="st2" d="M-38.3,28.7h-4.1c-0.1,0-0.2-0.1-0.2-0.2l0,0c0-0.1,0.1-0.2,0.2-0.2h4.1c0.1,0,0.2,0.1,0.2,0.2
	l0,0C-38.1,28.6-38.2,28.7-38.3,28.7z"/>
<path id="XMLID_1_" class="st2" d="M-38.3,29.6h-4.1c-0.1,0-0.2-0.1-0.2-0.2l0,0c0-0.1,0.1-0.2,0.2-0.2h4.1c0.1,0,0.2,0.1,0.2,0.2
	l0,0C-38.1,29.5-38.2,29.6-38.3,29.6z"/>
<g>
	<path id="XMLID_28_" class="st3" d="M-47.7,14.4c-0.4,0-0.8,0-1.2,0c0-4.8,0-9.6,0-14.4c0.4,0,0.8,0,1.2,0
		C-47.7,4.8-47.7,9.6-47.7,14.4z"/>
	<g>
		<rect id="XMLID_27_" x="-47.3" y="0" class="st1" width="10.5" height="14.4"/>
		<rect id="XMLID_26_" x="-45.9" y="2.9" class="st4" width="2.5" height="2.1"/>
		<rect id="XMLID_25_" x="-45.9" y="6.3" class="st5" width="2.5" height="2.1"/>
		<rect id="XMLID_24_" x="-45.9" y="9.6" class="st6" width="2.5" height="2.1"/>
		<path id="XMLID_23_" class="st7" d="M-40.2,3.2h-2.2c-0.1,0-0.2-0.1-0.2-0.2v0c0-0.1,0.1-0.2,0.2-0.2h2.2c0.1,0,0.2,0.1,0.2,0.2v0
			C-40.1,3.1-40.1,3.2-40.2,3.2z"/>
		<path id="XMLID_22_" class="st7" d="M-38.3,4.1h-4.1c-0.1,0-0.2-0.1-0.2-0.2v0c0-0.1,0.1-0.2,0.2-0.2h4.1c0.1,0,0.2,0.1,0.2,0.2v0
			C-38.1,4-38.2,4.1-38.3,4.1z"/>
		<path id="XMLID_21_" class="st7" d="M-38.3,4.9h-4.1c-0.1,0-0.2-0.1-0.2-0.2v0c0-0.1,0.1-0.2,0.2-0.2h4.1c0.1,0,0.2,0.1,0.2,0.2v0
			C-38.1,4.9-38.2,4.9-38.3,4.9z"/>
		<path id="XMLID_20_" class="st7" d="M-40.2,6.6h-2.2c-0.1,0-0.2-0.1-0.2-0.2v0c0-0.1,0.1-0.2,0.2-0.2h2.2c0.1,0,0.2,0.1,0.2,0.2v0
			C-40.1,6.6-40.1,6.6-40.2,6.6z"/>
		<path id="XMLID_19_" class="st7" d="M-38.3,7.5h-4.1c-0.1,0-0.2-0.1-0.2-0.2v0c0-0.1,0.1-0.2,0.2-0.2h4.1c0.1,0,0.2,0.1,0.2,0.2v0
			C-38.1,7.4-38.2,7.5-38.3,7.5z"/>
		<path id="XMLID_18_" class="st7" d="M-38.3,8.4h-4.1c-0.1,0-0.2-0.1-0.2-0.2l0,0c0-0.1,0.1-0.2,0.2-0.2h4.1c0.1,0,0.2,0.1,0.2,0.2
			l0,0C-38.1,8.3-38.2,8.4-38.3,8.4z"/>
		<path id="XMLID_17_" class="st7" d="M-40.2,9.9h-2.2c-0.1,0-0.2-0.1-0.2-0.2l0,0c0-0.1,0.1-0.2,0.2-0.2h2.2c0.1,0,0.2,0.1,0.2,0.2
			l0,0C-40.1,9.8-40.1,9.9-40.2,9.9z"/>
		<path id="XMLID_16_" class="st7" d="M-38.3,10.8h-4.1c-0.1,0-0.2-0.1-0.2-0.2l0,0c0-0.1,0.1-0.2,0.2-0.2h4.1
			c0.1,0,0.2,0.1,0.2,0.2l0,0C-38.1,10.7-38.2,10.8-38.3,10.8z"/>
		<path id="XMLID_15_" class="st7" d="M-38.3,11.6h-4.1c-0.1,0-0.2-0.1-0.2-0.2v0c0-0.1,0.1-0.2,0.2-0.2h4.1c0.1,0,0.2,0.1,0.2,0.2
			v0C-38.1,11.6-38.2,11.6-38.3,11.6z"/>
	</g>
</g>
<g>
	<g id="XMLID_55313_">
		<g id="XMLID_55314_">
			<defs>
				<rect id="XMLID_55315_" x="31.2" y="0" width="12.2" height="14.4"/>
			</defs>
			<use xlink:href="#XMLID_55315_"  style="overflow:visible;fill:#FFFFFF;"/>
			<clipPath id="XMLID_45_">
				<use xlink:href="#XMLID_55315_"  style="overflow:visible;"/>
			</clipPath>
		</g>
	</g>
	<path id="XMLID_55281_" class="st8" d="M29.8,0c-0.4,0-0.6,0.4-0.6,0.8v12.6c0,0.5,0.2,0.9,0.6,0.9h0.9V0H29.8z"/>
	<rect id="XMLID_55278_" x="31.2" y="0" class="st9" width="12.2" height="14.4"/>
	<path id="XMLID_55104_" class="st8" d="M42.1,11.6c-3.3,0-6.6,0-9.9,0c0-0.3,0.2-0.4,0.3-0.6c0.1,0,0.1-0.1,0.2-0.1
		c0.4-0.2,0.8-0.4,1.2-0.6c0.5-0.2,1-0.4,1.5-0.6c0-0.1,0.1-0.2,0.1-0.4c0-0.1,0-0.3,0.1-0.3c0.1,0,0.1,0,0.2,0c0-0.2,0-0.4,0.1-0.6
		c0-0.1,0-0.2,0-0.2c0,0-0.1-0.1-0.1-0.1c0,0-0.1-0.1-0.1-0.1c0,0,0,0,0,0c0-0.1-0.1-0.1-0.1-0.2c-0.1-0.1-0.1-0.2-0.1-0.3
		c0-0.1-0.1-0.2-0.1-0.3c0-0.1-0.1-0.2-0.1-0.2c-0.1-0.2-0.1-0.4-0.1-0.7c0-0.1,0-0.2,0.1-0.2c0,0,0.1,0,0.1,0c0-0.4,0-0.9,0-1.3
		c0-0.1,0-0.3,0-0.4c0-0.1,0.1-0.3,0.2-0.4c0.1-0.1,0.2-0.2,0.3-0.3c0,0,0.1-0.1,0.1-0.1c0.1-0.1,0.2-0.2,0.3-0.2
		c0.1-0.1,0.2-0.1,0.4-0.1C36.8,3,37,3,37.2,2.9c0.1,0,0.3-0.1,0.4-0.1c0.1,0,0.3-0.1,0.5,0c0,0.1-0.1,0.1-0.1,0.1
		c0,0-0.1,0.1-0.1,0.2c0,0.1,0.1,0.1,0.1,0.1c0,0,0.1,0.1,0.1,0.1c0,0,0,0,0,0c0.2,0.1,0.4,0.3,0.5,0.5c0.1,0.1,0.2,0.2,0.2,0.3
		c0,0.1,0,0.3,0,0.4c0,0.4,0,0.9,0,1.3c0.2,0,0.1,0.1,0.1,0.3c0,0.3,0,0.5-0.1,0.7c0,0.1-0.1,0.1-0.1,0.2c0,0.1,0,0.1,0,0.2
		c-0.1,0.3-0.1,0.5-0.3,0.7c0,0-0.1,0.1-0.1,0.1c0,0.1,0,0.3,0,0.4c0,0.2,0,0.3,0,0.4c0,0,0.1,0,0.1,0c0.2,0,0.1,0.2,0.2,0.4
		c0,0.1,0.1,0.1,0.1,0.2c0,0.1,0.1,0.1,0.1,0.2c0.8,0.3,1.7,0.7,2.5,1.1c0.1,0.1,0.2,0.1,0.3,0.2c0,0,0,0,0,0
		C41.8,11.1,42,11.3,42.1,11.6C42.1,11.6,42.1,11.6,42.1,11.6z"/>
</g>
<g id="XMLID_33_">
	<g id="XMLID_34_">
		<defs>
			<rect id="XMLID_35_" x="-23.6" y="17.9" width="12.2" height="14.4"/>
		</defs>
		<use xlink:href="#XMLID_35_"  style="overflow:visible;fill:#FFFFFF;"/>
		<clipPath id="XMLID_46_">
			<use xlink:href="#XMLID_35_"  style="overflow:visible;"/>
		</clipPath>
	</g>
</g>
<path id="XMLID_31_" class="st0" d="M-24.9,17.9c-0.4,0-0.6,0.4-0.6,0.8v12.6c0,0.5,0.2,0.9,0.6,0.9h0.9V17.9H-24.9z"/>
<rect id="XMLID_30_" x="-23.6" y="17.9" class="st9" width="12.2" height="14.4"/>
<path id="XMLID_29_" class="st0" d="M-12.7,29.5c-3.3,0-6.6,0-9.9,0c0-0.3,0.2-0.4,0.3-0.6c0.1,0,0.1-0.1,0.2-0.1
	c0.4-0.2,0.8-0.4,1.2-0.6c0.5-0.2,1-0.4,1.5-0.6c0-0.1,0.1-0.2,0.1-0.4c0-0.1,0-0.3,0.1-0.3c0.1,0,0.1,0,0.2,0c0-0.2,0-0.4,0.1-0.6
	c0-0.1,0-0.2,0-0.2c0,0-0.1-0.1-0.1-0.1c0,0-0.1-0.1-0.1-0.1c0,0,0,0,0,0c0-0.1-0.1-0.1-0.1-0.2c-0.1-0.1-0.1-0.2-0.1-0.3
	c0-0.1-0.1-0.2-0.1-0.3c0-0.1-0.1-0.2-0.1-0.2c-0.1-0.2-0.1-0.4-0.1-0.7c0-0.1,0-0.2,0.1-0.2c0,0,0.1,0,0.1,0c0-0.4,0-0.9,0-1.3
	c0-0.1,0-0.3,0-0.4c0-0.1,0.1-0.3,0.2-0.4c0.1-0.1,0.2-0.2,0.3-0.3c0,0,0.1-0.1,0.1-0.1c0.1-0.1,0.2-0.2,0.3-0.2
	c0.1-0.1,0.2-0.1,0.4-0.1c0.2-0.1,0.4-0.1,0.6-0.2c0.1,0,0.3-0.1,0.4-0.1c0.1,0,0.3-0.1,0.5,0c0,0.1-0.1,0.1-0.1,0.1
	c0,0-0.1,0.1-0.1,0.2c0,0.1,0.1,0.1,0.1,0.1c0,0,0.1,0.1,0.1,0.1c0,0,0,0,0,0c0.2,0.1,0.4,0.3,0.5,0.5c0.1,0.1,0.2,0.2,0.2,0.3
	c0,0.1,0,0.3,0,0.4c0,0.4,0,0.9,0,1.3c0.2,0,0.1,0.1,0.1,0.3c0,0.3,0,0.5-0.1,0.7c0,0.1-0.1,0.1-0.1,0.2c0,0.1,0,0.1,0,0.2
	c-0.1,0.3-0.1,0.5-0.3,0.7c0,0-0.1,0.1-0.1,0.1c0,0.1,0,0.3,0,0.4c0,0.2,0,0.3,0,0.4c0,0,0.1,0,0.1,0c0.2,0,0.1,0.2,0.2,0.4
	c0,0.1,0.1,0.1,0.1,0.2c0,0.1,0.1,0.1,0.1,0.2c0.8,0.3,1.7,0.7,2.5,1.1c0.1,0.1,0.2,0.1,0.3,0.2c0,0,0,0,0,0
	C-12.9,29-12.8,29.2-12.7,29.5C-12.7,29.5-12.7,29.5-12.7,29.5z"/>
<g>
	<g id="XMLID_40_">
		<g id="XMLID_41_">
			<defs>
				<rect id="XMLID_42_" x="-23.6" y="0" width="12.2" height="14.4"/>
			</defs>
			<use xlink:href="#XMLID_42_"  style="overflow:visible;fill:#FFFFFF;"/>
			<clipPath id="XMLID_47_">
				<use xlink:href="#XMLID_42_"  style="overflow:visible;"/>
			</clipPath>
		</g>
	</g>
	<path id="XMLID_38_" class="st8" d="M-24.9,0c-0.4,0-0.6,0.4-0.6,0.8v12.6c0,0.5,0.2,0.9,0.6,0.9h0.9V0H-24.9z"/>
	<rect id="XMLID_37_" x="-23.6" y="0" class="st9" width="12.2" height="14.4"/>
	<path id="XMLID_36_" class="st8" d="M-12.7,11.6c-3.3,0-6.6,0-9.9,0c0-0.3,0.2-0.4,0.3-0.6c0.1,0,0.1-0.1,0.2-0.1
		c0.4-0.2,0.8-0.4,1.2-0.6c0.5-0.2,1-0.4,1.5-0.6c0-0.1,0.1-0.2,0.1-0.4c0-0.1,0-0.3,0.1-0.3c0.1,0,0.1,0,0.2,0c0-0.2,0-0.4,0.1-0.6
		c0-0.1,0-0.2,0-0.2c0,0-0.1-0.1-0.1-0.1c0,0-0.1-0.1-0.1-0.1c0,0,0,0,0,0c0-0.1-0.1-0.1-0.1-0.2c-0.1-0.1-0.1-0.2-0.1-0.3
		c0-0.1-0.1-0.2-0.1-0.3c0-0.1-0.1-0.2-0.1-0.2c-0.1-0.2-0.1-0.4-0.1-0.7c0-0.1,0-0.2,0.1-0.2c0,0,0.1,0,0.1,0c0-0.4,0-0.9,0-1.3
		c0-0.1,0-0.3,0-0.4c0-0.1,0.1-0.3,0.2-0.4c0.1-0.1,0.2-0.2,0.3-0.3c0,0,0.1-0.1,0.1-0.1c0.1-0.1,0.2-0.2,0.3-0.2
		c0.1-0.1,0.2-0.1,0.4-0.1c0.2-0.1,0.4-0.1,0.6-0.2c0.1,0,0.3-0.1,0.4-0.1c0.1,0,0.3-0.1,0.5,0c0,0.1-0.1,0.1-0.1,0.1
		c0,0-0.1,0.1-0.1,0.2c0,0.1,0.1,0.1,0.1,0.1c0,0,0.1,0.1,0.1,0.1c0,0,0,0,0,0c0.2,0.1,0.4,0.3,0.5,0.5c0.1,0.1,0.2,0.2,0.2,0.3
		c0,0.1,0,0.3,0,0.4c0,0.4,0,0.9,0,1.3c0.2,0,0.1,0.1,0.1,0.3c0,0.3,0,0.5-0.1,0.7c0,0.1-0.1,0.1-0.1,0.2c0,0.1,0,0.1,0,0.2
		c-0.1,0.3-0.1,0.5-0.3,0.7c0,0-0.1,0.1-0.1,0.1c0,0.1,0,0.3,0,0.4c0,0.2,0,0.3,0,0.4c0,0,0.1,0,0.1,0c0.2,0,0.1,0.2,0.2,0.4
		c0,0.1,0.1,0.1,0.1,0.2c0,0.1,0.1,0.1,0.1,0.2c0.8,0.3,1.7,0.7,2.5,1.1c0.1,0.1,0.2,0.1,0.3,0.2c0,0,0,0,0,0
		C-12.9,11.1-12.8,11.3-12.7,11.6C-12.7,11.6-12.7,11.6-12.7,11.6z"/>
</g>
<path id="XMLID_43137_" class="st0" d="M11.2,25.8l-10,6.4c-0.5,0.3-1.2,0-1.2-0.6V18.7c0-0.6,0.7-1,1.2-0.6l10,6.4
	C11.7,24.8,11.7,25.5,11.2,25.8z"/>
<path id="XMLID_43_" class="st10" d="M11.2,7.8l-10,6.4c-0.5,0.3-1.2,0-1.2-0.6V0.8c0-0.6,0.7-1,1.2-0.6l10,6.4
	C11.7,6.9,11.7,7.5,11.2,7.8z"/>
</svg>
