<?xml version="1.0" encoding="utf-8"?>
<!-- Generator: Adobe Illustrator 22.0.1, SVG Export Plug-In . SVG Version: 6.00 Build 0)  -->
<svg version="1.1" id="Layer_1" xmlns="http://www.w3.org/2000/svg" xmlns:xlink="http://www.w3.org/1999/xlink" x="0px" y="0px"
	 viewBox="0 0 14.1 14.4" style="enable-background:new 0 0 14.1 14.4;" xml:space="preserve">
<style type="text/css">
	.st0{fill:#565D66;}
	.st1{fill:#EAEAEA;}
	.st2{fill-rule:evenodd;clip-rule:evenodd;fill:#565D66;}
	.st3{fill:#103856;}
	.st4{fill-rule:evenodd;clip-rule:evenodd;fill:#103856;}
	.st5{fill-rule:evenodd;clip-rule:evenodd;fill:#991032;}
	.st6{fill-rule:evenodd;clip-rule:evenodd;fill:#F48900;}
	.st7{opacity:0.5;fill-rule:evenodd;clip-rule:evenodd;fill:#6A6A69;}
	.st8{fill:#158181;}
	.st9{fill:#EDEDED;}
</style>
<path id="XMLID_14_" class="st0" d="M-22.2,32.3c-0.4,0-0.8,0-1.2,0c0-4.8,0-9.6,0-14.4c0.4,0,0.8,0,1.2,0
	C-22.2,22.7-22.2,27.5-22.2,32.3z"/>
<rect id="XMLID_13_" x="-21.8" y="17.9" class="st1" width="10.5" height="14.4"/>
<rect id="XMLID_12_" x="-20.4" y="20.8" class="st2" width="2.5" height="2.1"/>
<rect id="XMLID_11_" x="-20.4" y="24.2" class="st2" width="2.5" height="2.1"/>
<rect id="XMLID_10_" x="-20.4" y="27.5" class="st2" width="2.5" height="2.1"/>
<path id="XMLID_9_" class="st2" d="M-14.7,21.1H-17c-0.1,0-0.2-0.1-0.2-0.2v0c0-0.1,0.1-0.2,0.2-0.2h2.2c0.1,0,0.2,0.1,0.2,0.2v0
	C-14.6,21.1-14.6,21.1-14.7,21.1z"/>
<path id="XMLID_8_" class="st2" d="M-12.8,22H-17c-0.1,0-0.2-0.1-0.2-0.2l0,0c0-0.1,0.1-0.2,0.2-0.2h4.1c0.1,0,0.2,0.1,0.2,0.2l0,0
	C-12.6,21.9-12.7,22-12.8,22z"/>
<path id="XMLID_7_" class="st2" d="M-12.8,22.9H-17c-0.1,0-0.2-0.1-0.2-0.2l0,0c0-0.1,0.1-0.2,0.2-0.2h4.1c0.1,0,0.2,0.1,0.2,0.2
	l0,0C-12.6,22.8-12.7,22.9-12.8,22.9z"/>
<path id="XMLID_6_" class="st2" d="M-14.7,24.6H-17c-0.1,0-0.2-0.1-0.2-0.2v0c0-0.1,0.1-0.2,0.2-0.2h2.2c0.1,0,0.2,0.1,0.2,0.2v0
	C-14.6,24.5-14.6,24.6-14.7,24.6z"/>
<path id="XMLID_5_" class="st2" d="M-12.8,25.4H-17c-0.1,0-0.2-0.1-0.2-0.2l0,0c0-0.1,0.1-0.2,0.2-0.2h4.1c0.1,0,0.2,0.1,0.2,0.2
	l0,0C-12.6,25.4-12.7,25.4-12.8,25.4z"/>
<path id="XMLID_4_" class="st2" d="M-12.8,26.3H-17c-0.1,0-0.2-0.1-0.2-0.2l0,0c0-0.1,0.1-0.2,0.2-0.2h4.1c0.1,0,0.2,0.1,0.2,0.2
	l0,0C-12.6,26.2-12.7,26.3-12.8,26.3z"/>
<path id="XMLID_3_" class="st2" d="M-14.7,27.9H-17c-0.1,0-0.2-0.1-0.2-0.2l0,0c0-0.1,0.1-0.2,0.2-0.2h2.2c0.1,0,0.2,0.1,0.2,0.2
	l0,0C-14.6,27.8-14.6,27.9-14.7,27.9z"/>
<path id="XMLID_2_" class="st2" d="M-12.8,28.7H-17c-0.1,0-0.2-0.1-0.2-0.2l0,0c0-0.1,0.1-0.2,0.2-0.2h4.1c0.1,0,0.2,0.1,0.2,0.2
	l0,0C-12.6,28.6-12.7,28.7-12.8,28.7z"/>
<path id="XMLID_1_" class="st2" d="M-12.8,29.6H-17c-0.1,0-0.2-0.1-0.2-0.2l0,0c0-0.1,0.1-0.2,0.2-0.2h4.1c0.1,0,0.2,0.1,0.2,0.2
	l0,0C-12.6,29.5-12.7,29.6-12.8,29.6z"/>
<g>
	<path id="XMLID_28_" class="st3" d="M-22.2,14.4c-0.4,0-0.8,0-1.2,0c0-4.8,0-9.6,0-14.4c0.4,0,0.8,0,1.2,0
		C-22.2,4.8-22.2,9.6-22.2,14.4z"/>
	<g>
		<rect id="XMLID_27_" x="-21.8" y="0" class="st1" width="10.5" height="14.4"/>
		<rect id="XMLID_26_" x="-20.4" y="2.9" class="st4" width="2.5" height="2.1"/>
		<rect id="XMLID_25_" x="-20.4" y="6.3" class="st5" width="2.5" height="2.1"/>
		<rect id="XMLID_24_" x="-20.4" y="9.6" class="st6" width="2.5" height="2.1"/>
		<path id="XMLID_23_" class="st7" d="M-14.7,3.2H-17c-0.1,0-0.2-0.1-0.2-0.2v0c0-0.1,0.1-0.2,0.2-0.2h2.2c0.1,0,0.2,0.1,0.2,0.2v0
			C-14.6,3.1-14.6,3.2-14.7,3.2z"/>
		<path id="XMLID_22_" class="st7" d="M-12.8,4.1H-17c-0.1,0-0.2-0.1-0.2-0.2v0c0-0.1,0.1-0.2,0.2-0.2h4.1c0.1,0,0.2,0.1,0.2,0.2v0
			C-12.6,4-12.7,4.1-12.8,4.1z"/>
		<path id="XMLID_21_" class="st7" d="M-12.8,4.9H-17c-0.1,0-0.2-0.1-0.2-0.2v0c0-0.1,0.1-0.2,0.2-0.2h4.1c0.1,0,0.2,0.1,0.2,0.2v0
			C-12.6,4.9-12.7,4.9-12.8,4.9z"/>
		<path id="XMLID_20_" class="st7" d="M-14.7,6.6H-17c-0.1,0-0.2-0.1-0.2-0.2v0c0-0.1,0.1-0.2,0.2-0.2h2.2c0.1,0,0.2,0.1,0.2,0.2v0
			C-14.6,6.6-14.6,6.6-14.7,6.6z"/>
		<path id="XMLID_19_" class="st7" d="M-12.8,7.5H-17c-0.1,0-0.2-0.1-0.2-0.2v0c0-0.1,0.1-0.2,0.2-0.2h4.1c0.1,0,0.2,0.1,0.2,0.2v0
			C-12.6,7.4-12.7,7.5-12.8,7.5z"/>
		<path id="XMLID_18_" class="st7" d="M-12.8,8.4H-17c-0.1,0-0.2-0.1-0.2-0.2l0,0C-17.1,8.1-17,8-17,8h4.1c0.1,0,0.2,0.1,0.2,0.2
			l0,0C-12.6,8.3-12.7,8.4-12.8,8.4z"/>
		<path id="XMLID_17_" class="st7" d="M-14.7,9.9H-17c-0.1,0-0.2-0.1-0.2-0.2l0,0c0-0.1,0.1-0.2,0.2-0.2h2.2c0.1,0,0.2,0.1,0.2,0.2
			l0,0C-14.6,9.8-14.6,9.9-14.7,9.9z"/>
		<path id="XMLID_16_" class="st7" d="M-12.8,10.8H-17c-0.1,0-0.2-0.1-0.2-0.2l0,0c0-0.1,0.1-0.2,0.2-0.2h4.1c0.1,0,0.2,0.1,0.2,0.2
			l0,0C-12.6,10.7-12.7,10.8-12.8,10.8z"/>
		<path id="XMLID_15_" class="st7" d="M-12.8,11.6H-17c-0.1,0-0.2-0.1-0.2-0.2v0c0-0.1,0.1-0.2,0.2-0.2h4.1c0.1,0,0.2,0.1,0.2,0.2v0
			C-12.6,11.6-12.7,11.6-12.8,11.6z"/>
	</g>
</g>
<g>
	<g id="XMLID_55313_">
		<g id="XMLID_55314_">
			<defs>
				<rect id="XMLID_55315_" x="27.4" y="0" width="12.2" height="14.4"/>
			</defs>
			<use xlink:href="#XMLID_55315_"  style="overflow:visible;fill:#FFFFFF;"/>
			<clipPath id="XMLID_44_">
				<use xlink:href="#XMLID_55315_"  style="overflow:visible;"/>
			</clipPath>
		</g>
	</g>
	<path id="XMLID_55281_" class="st8" d="M26.1,0c-0.4,0-0.6,0.4-0.6,0.8v12.6c0,0.5,0.2,0.9,0.6,0.9H27V0H26.1z"/>
	<rect id="XMLID_55278_" x="27.4" y="0" class="st9" width="12.2" height="14.4"/>
	<path id="XMLID_55104_" class="st8" d="M38.3,11.6c-3.3,0-6.6,0-9.9,0c0-0.3,0.2-0.4,0.3-0.6c0.1,0,0.1-0.1,0.2-0.1
		c0.4-0.2,0.8-0.4,1.2-0.6c0.5-0.2,1-0.4,1.5-0.6c0-0.1,0.1-0.2,0.1-0.4c0-0.1,0-0.3,0.1-0.3c0.1,0,0.1,0,0.2,0c0-0.2,0-0.4,0.1-0.6
		c0-0.1,0-0.2,0-0.2C32.1,8,32.1,8,32,8c0,0-0.1-0.1-0.1-0.1c0,0,0,0,0,0c0-0.1-0.1-0.1-0.1-0.2c-0.1-0.1-0.1-0.2-0.1-0.3
		c0-0.1-0.1-0.2-0.1-0.3c0-0.1-0.1-0.2-0.1-0.2c-0.1-0.2-0.1-0.4-0.1-0.7c0-0.1,0-0.2,0.1-0.2c0,0,0.1,0,0.1,0c0-0.4,0-0.9,0-1.3
		c0-0.1,0-0.3,0-0.4c0-0.1,0.1-0.3,0.2-0.4C31.9,3.7,32,3.6,32,3.5c0,0,0.1-0.1,0.1-0.1c0.1-0.1,0.2-0.2,0.3-0.2
		c0.1-0.1,0.2-0.1,0.4-0.1C33.1,3,33.3,3,33.5,2.9c0.1,0,0.3-0.1,0.4-0.1c0.1,0,0.3-0.1,0.5,0c0,0.1-0.1,0.1-0.1,0.1
		c0,0-0.1,0.1-0.1,0.2c0,0.1,0.1,0.1,0.1,0.1c0,0,0.1,0.1,0.1,0.1c0,0,0,0,0,0c0.2,0.1,0.4,0.3,0.5,0.5c0.1,0.1,0.2,0.2,0.2,0.3
		c0,0.1,0,0.3,0,0.4c0,0.4,0,0.9,0,1.3c0.2,0,0.1,0.1,0.1,0.3c0,0.3,0,0.5-0.1,0.7c0,0.1-0.1,0.1-0.1,0.2c0,0.1,0,0.1,0,0.2
		c-0.1,0.3-0.1,0.5-0.3,0.7c0,0-0.1,0.1-0.1,0.1c0,0.1,0,0.3,0,0.4c0,0.2,0,0.3,0,0.4c0,0,0.1,0,0.1,0c0.2,0,0.1,0.2,0.2,0.4
		c0,0.1,0.1,0.1,0.1,0.2c0,0.1,0.1,0.1,0.1,0.2c0.8,0.3,1.7,0.7,2.5,1.1c0.1,0.1,0.2,0.1,0.3,0.2c0,0,0,0,0,0
		C38.1,11.1,38.2,11.3,38.3,11.6C38.3,11.6,38.3,11.6,38.3,11.6z"/>
</g>
<g id="XMLID_33_">
	<g id="XMLID_34_">
		<defs>
			<rect id="XMLID_35_" x="1.9" y="17.9" width="12.2" height="14.4"/>
		</defs>
		<use xlink:href="#XMLID_35_"  style="overflow:visible;fill:#FFFFFF;"/>
		<clipPath id="XMLID_45_">
			<use xlink:href="#XMLID_35_"  style="overflow:visible;"/>
		</clipPath>
	</g>
</g>
<path id="XMLID_31_" class="st0" d="M0.6,17.9c-0.4,0-0.6,0.4-0.6,0.8v12.6c0,0.5,0.2,0.9,0.6,0.9h0.9V17.9H0.6z"/>
<rect id="XMLID_30_" x="1.9" y="17.9" class="st9" width="12.2" height="14.4"/>
<path id="XMLID_29_" class="st0" d="M12.8,29.5c-3.3,0-6.6,0-9.9,0c0-0.3,0.2-0.4,0.3-0.6c0.1,0,0.1-0.1,0.2-0.1
	c0.4-0.2,0.8-0.4,1.2-0.6c0.5-0.2,1-0.4,1.5-0.6c0-0.1,0.1-0.2,0.1-0.4c0-0.1,0-0.3,0.1-0.3c0.1,0,0.1,0,0.2,0c0-0.2,0-0.4,0.1-0.6
	c0-0.1,0-0.2,0-0.2c0,0-0.1-0.1-0.1-0.1c0,0-0.1-0.1-0.1-0.1c0,0,0,0,0,0c0-0.1-0.1-0.1-0.1-0.2c-0.1-0.1-0.1-0.2-0.1-0.3
	c0-0.1-0.1-0.2-0.1-0.3c0-0.1-0.1-0.2-0.1-0.2C6,24.5,6,24.3,5.9,24c0-0.1,0-0.2,0.1-0.2c0,0,0.1,0,0.1,0c0-0.4,0-0.9,0-1.3
	c0-0.1,0-0.3,0-0.4c0-0.1,0.1-0.3,0.2-0.4c0.1-0.1,0.2-0.2,0.3-0.3c0,0,0.1-0.1,0.1-0.1c0.1-0.1,0.2-0.2,0.3-0.2
	c0.1-0.1,0.2-0.1,0.4-0.1c0.2-0.1,0.4-0.1,0.6-0.2c0.1,0,0.3-0.1,0.4-0.1c0.1,0,0.3-0.1,0.5,0c0,0.1-0.1,0.1-0.1,0.1
	c0,0-0.1,0.1-0.1,0.2c0,0.1,0.1,0.1,0.1,0.1c0,0,0.1,0.1,0.1,0.1c0,0,0,0,0,0c0.2,0.1,0.4,0.3,0.5,0.5c0.1,0.1,0.2,0.2,0.2,0.3
	c0,0.1,0,0.3,0,0.4c0,0.4,0,0.9,0,1.3c0.2,0,0.1,0.1,0.1,0.3c0,0.3,0,0.5-0.1,0.7c0,0.1-0.1,0.1-0.1,0.2c0,0.1,0,0.1,0,0.2
	c-0.1,0.3-0.1,0.5-0.3,0.7c0,0-0.1,0.1-0.1,0.1c0,0.1,0,0.3,0,0.4c0,0.2,0,0.3,0,0.4c0,0,0.1,0,0.1,0c0.2,0,0.1,0.2,0.2,0.4
	c0,0.1,0.1,0.1,0.1,0.2c0,0.1,0.1,0.1,0.1,0.2c0.8,0.3,1.7,0.7,2.5,1.1c0.1,0.1,0.2,0.1,0.3,0.2c0,0,0,0,0,0
	C12.6,29,12.7,29.2,12.8,29.5C12.8,29.5,12.8,29.5,12.8,29.5z"/>
<g>
	<g id="XMLID_40_">
		<g id="XMLID_41_">
			<defs>
				<rect id="XMLID_42_" x="1.9" y="0" width="12.2" height="14.4"/>
			</defs>
			<use xlink:href="#XMLID_42_"  style="overflow:visible;fill:#FFFFFF;"/>
			<clipPath id="XMLID_46_">
				<use xlink:href="#XMLID_42_"  style="overflow:visible;"/>
			</clipPath>
		</g>
	</g>
	<path id="XMLID_38_" class="st8" d="M0.6,0C0.2,0,0,0.4,0,0.8v12.6c0,0.5,0.2,0.9,0.6,0.9h0.9V0H0.6z"/>
	<rect id="XMLID_37_" x="1.9" y="0" class="st9" width="12.2" height="14.4"/>
	<path id="XMLID_36_" class="st8" d="M12.8,11.6c-3.3,0-6.6,0-9.9,0c0-0.3,0.2-0.4,0.3-0.6c0.1,0,0.1-0.1,0.2-0.1
		c0.4-0.2,0.8-0.4,1.2-0.6c0.5-0.2,1-0.4,1.5-0.6c0-0.1,0.1-0.2,0.1-0.4c0-0.1,0-0.3,0.1-0.3c0.1,0,0.1,0,0.2,0c0-0.2,0-0.4,0.1-0.6
		c0-0.1,0-0.2,0-0.2C6.6,8,6.6,8,6.5,8c0,0-0.1-0.1-0.1-0.1c0,0,0,0,0,0c0-0.1-0.1-0.1-0.1-0.2C6.3,7.5,6.3,7.4,6.2,7.3
		c0-0.1-0.1-0.2-0.1-0.3C6.1,7,6.1,6.9,6,6.8C6,6.6,6,6.3,5.9,6.1c0-0.1,0-0.2,0.1-0.2c0,0,0.1,0,0.1,0c0-0.4,0-0.9,0-1.3
		c0-0.1,0-0.3,0-0.4c0-0.1,0.1-0.3,0.2-0.4c0.1-0.1,0.2-0.2,0.3-0.3c0,0,0.1-0.1,0.1-0.1C6.8,3.4,6.9,3.3,7,3.2
		c0.1-0.1,0.2-0.1,0.4-0.1C7.6,3,7.8,3,8,2.9c0.1,0,0.3-0.1,0.4-0.1c0.1,0,0.3-0.1,0.5,0c0,0.1-0.1,0.1-0.1,0.1c0,0-0.1,0.1-0.1,0.2
		c0,0.1,0.1,0.1,0.1,0.1c0,0,0.1,0.1,0.1,0.1c0,0,0,0,0,0c0.2,0.1,0.4,0.3,0.5,0.5C9.6,4,9.6,4.1,9.7,4.2c0,0.1,0,0.3,0,0.4
		c0,0.4,0,0.9,0,1.3c0.2,0,0.1,0.1,0.1,0.3c0,0.3,0,0.5-0.1,0.7C9.7,6.9,9.6,7,9.6,7c0,0.1,0,0.1,0,0.2C9.5,7.5,9.4,7.7,9.3,7.9
		c0,0-0.1,0.1-0.1,0.1c0,0.1,0,0.3,0,0.4c0,0.2,0,0.3,0,0.4c0,0,0.1,0,0.1,0c0.2,0,0.1,0.2,0.2,0.4c0,0.1,0.1,0.1,0.1,0.2
		c0,0.1,0.1,0.1,0.1,0.2c0.8,0.3,1.7,0.7,2.5,1.1c0.1,0.1,0.2,0.1,0.3,0.2c0,0,0,0,0,0C12.6,11.1,12.7,11.3,12.8,11.6
		C12.8,11.6,12.8,11.6,12.8,11.6z"/>
</g>
</svg>
